{"glyphs":{":":{"x_min":0,"x_max":333,"ha":333,"o":"m 183 307 q 148 307 125 330 q 102 354 102 388 q 102 422 125 445 q 147 469 183 469 q 217 469 240 445 q 264 421 264 388 q 264 354 240 330 q 217 307 183 307 z m 115 -14 q 81 -14 57 9 q 34 33 34 67 q 34 101 57 124 q 81 148 115 148 q 148 148 172 125 q 196 101 196 67 q 196 33 172 10 q 149 -14 115 -14 z"},"$":{"x_min":0,"x_max":500,"ha":500,"o":"m 348 661 q 418 657 479 641 l 452 485 l 409 485 l 405 581 q 375 604 338 609 l 298 396 q 369 355 396 331 q 422 307 438 276 q 454 246 454 207 q 454 9 222 -8 l 209 -76 l 160 -76 l 172 -10 q 68 -8 -12 25 l 20 201 l 62 201 l 63 96 q 79 73 108 56 q 137 40 181 40 l 229 291 q 162 326 135 350 q 108 374 93 405 q 78 436 78 478 q 78 654 298 662 l 310 724 l 360 724 z m 334 169 q 334 200 321 224 q 308 248 275 270 l 232 44 q 280 55 307 88 q 334 122 334 169 z m 195 511 q 195 479 211 458 q 227 436 252 418 l 289 610 q 244 606 219 580 q 195 554 195 511 z"},"?":{"x_min":0,"x_max":500,"ha":500,"o":"m 464 509 q 464 426 420 375 q 375 325 282 300 l 243 289 l 212 190 l 162 190 l 161 343 l 213 354 q 332 379 332 513 q 332 612 240 612 q 221 612 201 606 q 181 599 168 589 l 136 495 l 93 495 l 112 639 q 189 662 265 662 q 360 662 412 623 q 464 583 464 509 z m 171 -14 q 137 -14 114 9 q 90 33 90 67 q 90 101 114 125 q 137 148 171 148 q 205 148 228 125 q 252 101 252 67 q 252 33 229 10 q 205 -14 171 -14 z"},"<":{"x_min":0,"x_max":570,"ha":570,"o":"m 49 310 l 49 354 l 514 583 l 514 513 l 140 332 l 514 151 l 514 81 z"},"'":{"x_min":0,"x_max":278,"ha":278,"o":"m 142 655 l 258 655 l 179 420 l 138 420 z"},"=":{"x_min":0,"x_max":570,"ha":570,"o":"m 522 267 l 522 197 l 58 197 l 58 267 z m 522 467 l 522 397 l 58 397 l 58 467 z"},"a":{"x_min":0,"x_max":500,"ha":500,"o":"m 402 44 l 455 28 l 451 0 l 282 0 l 280 67 q 251 31 215 10 q 178 -10 141 -10 q 80 -10 46 34 q 12 78 12 156 q 12 241 47 314 q 83 387 147 429 q 210 471 287 471 q 354 471 410 449 l 450 467 l 476 467 z m 140 171 q 140 121 157 92 q 174 62 199 62 q 219 62 243 82 q 267 101 286 130 l 334 405 q 312 421 273 421 q 237 421 207 387 q 176 353 158 294 q 140 235 140 171 z"},"L":{"x_min":0,"x_max":611,"ha":611,"o":"m 229 52 l 285 52 q 332 52 390 55 q 449 58 468 62 l 525 198 l 566 198 l 522 0 l -7 0 l -1 36 l 85 49 l 183 606 l 102 619 l 108 655 l 432 655 l 426 619 l 327 606 z"},"3":{"x_min":0,"x_max":500,"ha":500,"o":"m 169 -10 q 57 -10 -8 10 l 14 168 l 59 168 l 66 63 q 75 56 106 48 q 137 40 164 40 q 231 40 269 78 q 307 117 307 192 q 307 249 282 276 q 258 304 211 309 l 155 312 l 166 372 l 221 375 q 337 383 337 513 q 337 562 314 587 q 291 612 249 612 q 205 612 173 587 l 135 492 l 93 492 l 119 641 q 169 654 203 658 q 237 662 280 662 q 371 662 422 624 q 473 586 473 520 q 473 445 431 400 q 389 355 308 343 q 372 333 407 292 q 442 252 442 194 q 442 98 369 44 q 295 -10 169 -10 z"},";":{"x_min":0,"x_max":333,"ha":333,"o":"m 202 52 q 202 -25 153 -78 q 105 -131 13 -155 l 13 -110 q 40 -103 60 -88 q 80 -73 91 -54 q 102 -36 102 -19 q 102 -8 94 0 q 87 8 67 21 q 33 42 33 82 q 33 114 55 130 q 77 147 110 147 q 151 147 177 121 q 202 94 202 52 z m 187 307 q 152 307 129 330 q 106 354 106 388 q 106 422 129 445 q 151 469 187 469 q 221 469 244 445 q 268 421 268 388 q 268 354 244 330 q 221 307 187 307 z"},"J":{"x_min":0,"x_max":500,"ha":500,"o":"m 299 606 l 218 619 l 224 655 l 526 655 l 520 619 l 443 606 l 374 211 q 355 105 290 48 q 225 -10 119 -10 q 45 -10 -2 5 l 24 153 l 65 153 l 67 66 q 83 42 122 42 q 158 42 184 67 q 209 92 216 135 z"},"V":{"x_min":0,"x_max":667,"ha":667,"o":"m 735 655 l 729 619 l 665 606 l 312 -15 l 257 -15 l 110 606 l 59 619 l 64 655 l 332 655 l 326 619 l 255 606 l 354 177 l 592 606 l 528 619 l 534 655 z"},"\"":{"x_min":0,"x_max":555,"ha":555,"o":"m 373 655 l 489 655 l 409 420 l 368 420 z m 184 655 l 300 655 l 221 420 l 180 420 z"},"7":{"x_min":0,"x_max":500,"ha":500,"o":"m 124 468 l 82 468 l 115 655 l 533 655 l 526 616 l 168 0 l 42 0 l 420 556 l 162 556 z"},"S":{"x_min":0,"x_max":556,"ha":556,"o":"m 211 -10 q 105 -10 18 25 l 49 201 l 92 201 l 93 96 q 109 72 145 56 q 180 40 219 40 q 291 40 329 69 q 368 99 368 152 q 368 178 356 198 q 344 217 325 233 q 306 249 281 263 q 257 277 231 291 q 206 306 181 323 q 157 339 137 361 q 118 383 106 412 q 95 440 95 478 q 95 568 160 615 q 225 662 350 662 q 434 662 514 641 l 487 485 l 443 485 l 440 581 q 400 611 337 611 q 282 611 250 587 q 219 563 219 522 q 219 493 240 468 q 261 443 306 418 q 372 382 401 363 q 430 343 450 321 q 470 299 482 271 q 494 244 494 207 q 494 101 421 46 q 349 -10 211 -10 z"},"}":{"x_min":0,"x_max":348,"ha":348,"o":"m -59 -134 l -51 -91 l -21 -91 q 13 -91 33 -74 q 52 -58 60 -16 l 91 162 q 100 210 132 243 q 164 275 212 286 l 212 287 q 177 295 155 320 q 133 346 133 385 l 135 410 l 161 556 q 164 572 164 586 q 164 616 151 634 q 138 651 110 651 l 80 651 l 87 694 l 153 694 q 217 694 247 663 q 277 633 277 581 q 277 562 273 541 l 250 407 q 247 391 247 377 q 247 304 336 302 l 329 260 q 274 258 244 232 q 214 207 205 154 l 178 0 q 166 -66 125 -100 q 83 -134 7 -134 z"},"Z":{"x_min":0,"x_max":611,"ha":611,"o":"m 411 603 l 317 603 q 269 603 229 600 q 189 597 174 593 l 141 490 l 97 490 l 126 655 l 585 655 l 576 603 l 174 51 l 266 51 q 319 51 377 56 q 435 62 456 67 l 507 192 l 551 192 l 504 0 l -2 0 l 7 56 z"},"x":{"x_min":0,"x_max":500,"ha":500,"o":"m 214 183 l 134 115 q 116 100 107 90 q 97 79 93 71 q 89 63 89 51 q 89 36 109 32 l 104 0 l -4 0 q -12 6 -12 21 q -12 38 4 58 q 20 79 55 108 l 193 225 l 95 415 l 53 427 l 58 459 l 204 459 l 285 300 l 334 342 q 358 361 370 377 q 382 393 382 408 q 382 422 355 427 l 361 459 l 465 459 q 476 451 476 438 q 476 401 408 345 l 307 260 l 418 42 l 460 32 l 455 0 l 307 0 z"},")":{"x_min":0,"x_max":333,"ha":333,"o":"m -75 -213 l -64 -152 q 0 -108 47 -26 q 94 56 124 192 q 153 328 153 425 q 153 574 76 643 l 84 694 q 183 636 226 561 q 269 485 269 375 q 269 295 247 193 q 226 91 187 18 q 148 -55 88 -109 q 27 -163 -75 -213 z"},"&":{"x_min":0,"x_max":778,"ha":778,"o":"m 537 538 q 537 498 520 469 q 502 441 472 419 q 441 398 364 367 l 516 196 q 570 279 584 350 l 527 363 l 533 394 l 766 394 l 760 363 l 699 350 q 677 297 641 239 q 606 181 567 138 l 651 43 l 711 31 l 706 0 l 528 0 l 479 59 q 421 20 368 5 q 315 -10 251 -10 q 141 -10 83 36 q 24 82 24 169 q 24 218 46 254 q 68 289 105 315 q 142 341 218 368 q 176 434 176 506 q 176 579 227 622 q 277 665 365 665 q 418 665 457 649 q 496 633 516 604 q 537 575 537 538 z m 252 321 q 210 300 192 281 q 174 262 164 236 q 154 209 154 174 q 154 118 185 85 q 216 53 267 53 q 363 53 433 111 z m 291 523 q 291 468 330 412 q 387 438 408 466 q 429 494 429 531 q 429 572 411 595 q 393 617 365 617 q 329 617 310 592 q 291 566 291 523 z"},"_":{"x_min":0,"x_max":500,"ha":500,"o":"m -75 -139 l -75 -69 l 441 -69 l 441 -139 z"},"v":{"x_min":0,"x_max":444,"ha":444,"o":"m 161 459 l 234 140 l 333 293 q 349 318 357 342 q 365 366 365 381 q 365 394 361 402 q 357 410 350 416 q 343 421 321 427 l 327 459 l 440 459 q 453 448 453 428 q 453 383 412 321 l 199 -10 l 139 -10 l 39 416 l 9 427 l 15 459 z"},"O":{"x_min":0,"x_max":722,"ha":722,"o":"m 547 412 q 547 504 510 558 q 473 611 406 611 q 347 611 297 562 q 247 513 215 421 q 183 328 183 237 q 183 145 219 93 q 255 41 321 41 q 382 41 432 89 q 482 137 515 228 q 547 319 547 412 z m 312 -10 q 231 -10 168 24 q 105 57 71 118 q 36 179 36 256 q 36 374 84 468 q 132 561 219 612 q 305 662 418 662 q 499 662 562 629 q 625 595 659 534 q 694 474 694 396 q 694 279 645 183 q 596 87 510 39 q 425 -10 312 -10 z"},"(":{"x_min":0,"x_max":333,"ha":333,"o":"m 166 59 q 166 -92 244 -162 l 233 -213 q 138 -158 94 -81 q 49 -4 49 106 q 49 189 71 291 q 93 393 132 466 q 170 538 231 592 q 292 645 393 694 l 382 633 q 316 589 270 505 q 223 421 194 287 q 166 153 166 59 z"},"C":{"x_min":0,"x_max":667,"ha":667,"o":"m 327 -10 q 188 -10 111 62 q 34 134 34 259 q 34 379 85 471 q 136 562 230 612 q 324 662 445 662 q 556 662 676 637 l 650 472 l 609 472 l 609 567 q 583 588 546 599 q 508 611 467 611 q 387 611 323 566 q 258 521 223 439 q 187 357 187 255 q 187 154 232 97 q 277 41 358 41 q 406 41 455 54 q 503 68 533 90 l 570 197 l 612 197 l 580 31 q 524 13 458 2 q 391 -10 327 -10 z"},"W":{"x_min":0,"x_max":889,"ha":889,"o":"m 593 -15 l 547 -15 l 470 399 l 273 -15 l 224 -15 l 132 606 l 69 619 l 75 655 l 351 655 l 344 619 l 265 606 l 317 209 l 511 614 l 560 614 l 634 207 l 811 606 l 730 619 l 737 655 l 948 655 l 941 619 l 882 606 z"},"A":{"x_min":0,"x_max":667,"ha":667,"o":"m 147 36 l 141 0 l -52 0 l -45 36 l 5 49 l 332 660 l 449 660 l 573 49 l 626 36 l 619 0 l 351 0 l 358 36 l 425 49 l 396 218 l 165 218 l 75 49 z m 336 546 l 192 272 l 386 272 z"},"f":{"x_min":0,"x_max":333,"ha":333,"o":"m 108 408 l 29 408 l 35 442 l 118 461 l 129 521 q 147 617 199 661 q 251 704 338 704 q 383 704 416 694 l 397 585 l 366 585 l 360 640 q 350 650 333 650 q 307 650 291 624 q 274 598 263 536 l 249 459 l 349 459 l 340 408 l 240 408 l 131 -213 l 0 -213 z"},"Q":{"x_min":0,"x_max":722,"ha":722,"o":"m 694 396 q 694 306 664 227 q 634 147 578 91 q 521 35 444 10 l 460 -14 q 517 -104 569 -104 q 580 -104 613 -100 l 619 -138 q 598 -147 557 -155 q 517 -162 492 -162 q 449 -162 418 -150 q 387 -138 361 -112 q 335 -86 290 -9 q 214 -4 156 30 q 99 65 67 124 q 36 184 36 256 q 36 374 84 468 q 132 561 219 612 q 305 662 418 662 q 499 662 562 629 q 625 595 659 534 q 694 474 694 396 z m 547 412 q 547 504 510 558 q 473 611 406 611 q 347 611 297 562 q 247 513 215 421 q 183 328 183 237 q 183 145 219 93 q 255 41 321 41 q 382 41 432 89 q 482 137 515 228 q 547 319 547 412 z"},"w":{"x_min":0,"x_max":667,"ha":667,"o":"m 579 378 q 579 413 547 422 l 530 427 l 536 459 l 655 459 q 670 447 670 419 q 670 376 638 321 l 441 -10 l 383 -10 l 333 253 l 188 -10 l 124 -10 l 40 415 l 1 427 l 6 459 l 155 459 l 216 138 l 367 413 l 416 413 l 471 138 l 551 283 q 561 301 570 331 q 579 360 579 378 z"},"-":{"x_min":0,"x_max":333,"ha":333,"o":"m 21 193 l 37 278 l 297 278 l 281 193 z"},"E":{"x_min":0,"x_max":667,"ha":667,"o":"m 183 606 l 102 619 l 108 655 l 622 655 l 592 488 l 548 488 l 551 594 q 498 601 394 601 l 327 601 l 284 361 l 421 361 l 449 433 l 493 433 l 457 232 l 414 232 l 412 306 l 274 306 l 230 54 l 319 54 q 443 54 484 62 l 535 183 l 579 183 l 538 0 l -7 0 l -1 36 l 85 49 z"},"s":{"x_min":0,"x_max":389,"ha":389,"o":"m 338 145 q 338 71 289 31 q 239 -10 140 -10 q 102 -10 59 -1 q 16 7 -5 17 l 17 144 l 49 144 l 57 80 q 88 36 143 36 q 183 36 207 57 q 231 78 231 110 q 231 129 218 145 q 205 161 178 176 l 146 195 q 91 225 69 258 q 46 291 46 332 q 46 471 230 471 q 288 471 358 456 l 337 338 l 305 338 l 299 392 q 289 404 269 415 q 249 425 224 425 q 187 425 169 409 q 152 392 152 365 q 152 346 166 330 q 181 313 229 286 q 276 260 296 241 q 316 222 327 199 q 338 176 338 145 z"},">":{"x_min":0,"x_max":570,"ha":570,"o":"m 75 81 l 75 151 l 450 332 l 75 513 l 75 583 l 540 354 l 540 310 z"},"l":{"x_min":0,"x_max":278,"ha":278,"o":"m 161 44 l 219 32 l 214 0 l 22 0 l 137 650 l 93 662 l 98 694 l 276 694 z"},"8":{"x_min":0,"x_max":500,"ha":500,"o":"m 485 530 q 485 461 452 413 q 419 364 362 347 q 402 333 426 299 q 449 265 449 215 q 449 -10 205 -10 q 114 -10 66 34 q 18 79 18 157 q 18 233 57 282 q 97 332 165 347 q 133 364 114 399 q 95 435 95 479 q 95 570 152 617 q 208 665 317 665 q 399 665 442 630 q 485 595 485 530 z m 218 446 q 218 374 270 374 q 312 374 336 420 q 361 466 361 542 q 361 616 305 616 q 264 616 241 572 q 218 528 218 446 z m 141 133 q 141 41 216 41 q 270 41 298 89 q 325 138 325 230 q 325 319 250 319 q 197 319 169 269 q 141 219 141 133 z"},"\\":{"x_min":0,"x_max":278,"ha":278,"o":"m 166 -10 l 63 659 l 125 659 l 229 -10 z"},"e":{"x_min":0,"x_max":444,"ha":444,"o":"m 422 371 q 422 327 390 290 q 357 253 297 229 q 236 205 159 199 q 156 189 156 166 q 156 51 245 51 q 281 51 312 65 q 342 79 369 97 l 391 66 q 348 30 297 10 q 247 -10 201 -10 q 114 -10 69 34 q 23 77 23 161 q 23 245 59 317 q 95 389 153 430 q 212 471 275 471 q 342 471 382 444 q 422 417 422 371 z m 167 248 q 226 254 264 291 q 303 328 303 377 q 303 398 293 408 q 283 418 269 418 q 235 418 206 369 q 177 319 167 248 z"},"b":{"x_min":0,"x_max":500,"ha":500,"o":"m 342 287 q 342 338 325 367 q 309 397 283 397 q 265 397 242 378 q 219 359 198 329 l 150 61 q 160 51 179 44 q 198 37 213 37 q 247 37 277 72 q 307 107 324 166 q 342 225 342 287 z m 219 -11 q 166 -11 111 -2 q 55 6 13 23 l 124 651 l 79 662 l 84 694 l 263 694 l 226 484 q 216 427 205 389 q 235 429 270 450 q 306 471 342 471 q 401 471 436 427 q 470 384 470 308 q 470 222 437 147 q 403 72 346 31 q 290 -11 219 -11 z"},"%":{"x_min":0,"x_max":833,"ha":833,"o":"m 172 -10 l 99 -10 l 681 665 l 754 665 z m 391 540 q 391 518 386 486 q 354 304 196 304 q 64 304 64 431 q 64 537 116 601 q 168 665 258 665 q 323 665 357 634 q 391 602 391 540 z m 158 417 q 158 350 198 350 q 226 350 248 377 q 271 405 283 454 q 296 503 296 544 q 296 581 286 600 q 276 619 253 619 q 225 619 204 591 q 182 562 170 510 q 158 458 158 417 z m 782 222 q 782 201 776 168 q 744 -13 586 -13 q 455 -13 455 113 q 455 220 507 284 q 559 348 648 348 q 714 348 748 316 q 782 285 782 222 z m 548 99 q 548 32 588 32 q 616 32 639 60 q 661 88 674 137 q 687 186 687 227 q 687 264 677 283 q 667 302 644 302 q 616 302 594 273 q 573 245 561 193 q 548 141 548 99 z"},"m":{"x_min":0,"x_max":778,"ha":778,"o":"m 596 354 q 596 401 561 401 q 543 401 520 382 q 497 362 479 332 q 460 302 456 275 l 407 0 l 277 0 l 327 278 q 337 334 337 354 q 337 401 301 401 q 278 401 248 369 q 218 336 201 290 l 149 0 l 19 0 l 91 415 l 48 427 l 54 459 l 214 459 l 213 377 q 248 425 288 448 q 327 471 376 471 q 419 471 444 446 q 469 420 469 375 q 538 471 634 471 q 677 471 703 444 q 728 417 728 368 q 728 350 720 304 l 673 44 l 730 32 l 724 0 l 535 0 l 585 278 q 596 334 596 354 z"},"#":{"x_min":0,"x_max":500,"ha":500,"o":"m 348 201 l 276 0 l 202 0 l 274 201 l 146 201 l 75 0 l 0 0 l 72 201 l -2 201 l 8 261 l 95 261 l 146 401 l 33 401 l 43 461 l 167 461 l 237 655 l 312 655 l 241 461 l 369 461 l 439 655 l 513 655 l 443 461 l 517 461 l 506 401 l 421 401 l 372 261 l 482 261 l 471 201 z m 219 401 l 169 261 l 297 261 l 348 401 z"},",":{"x_min":0,"x_max":250,"ha":250,"o":"m 167 52 q 167 -25 119 -78 q 71 -131 -21 -155 l -21 -110 q 6 -103 26 -88 q 46 -73 57 -54 q 67 -36 67 -19 q 67 -8 60 0 q 53 8 33 21 q -1 42 -1 82 q -1 114 21 130 q 42 147 76 147 q 117 147 142 121 q 167 94 167 52 z"},"n":{"x_min":0,"x_max":556,"ha":556,"o":"m 373 354 q 373 401 329 401 q 298 401 259 367 q 221 333 202 290 l 150 0 l 21 0 l 93 415 l 49 427 l 56 459 l 219 459 l 215 374 q 291 471 400 471 q 449 471 477 445 q 505 419 505 373 q 505 347 493 283 l 451 44 l 507 32 l 501 0 l 312 0 l 362 278 q 373 334 373 354 z"},"h":{"x_min":0,"x_max":556,"ha":556,"o":"m 213 375 q 288 471 399 471 q 447 471 476 445 q 504 419 504 374 q 504 349 496 303 l 450 44 l 506 32 l 500 0 l 312 0 l 361 278 q 372 334 372 354 q 372 401 328 401 q 297 401 258 367 q 220 333 201 290 l 149 0 l 20 0 l 134 650 l 89 662 l 95 694 l 273 694 l 232 468 l 216 390 z"},"z":{"x_min":0,"x_max":389,"ha":389,"o":"m -28 0 l -24 24 l 228 415 l 193 415 q 167 415 141 410 q 116 406 104 398 l 74 322 l 39 322 l 63 459 l 385 459 l 381 433 l 129 44 l 169 44 q 197 44 227 51 q 257 57 273 67 l 313 154 l 348 154 l 312 0 z"},"B":{"x_min":0,"x_max":667,"ha":667,"o":"m 331 373 q 485 373 485 505 q 485 552 455 576 q 426 601 369 601 l 325 601 l 285 373 z m 319 51 q 402 51 440 87 q 479 123 479 198 q 479 257 442 288 q 405 319 331 319 l 275 319 l 229 54 q 280 51 319 51 z m 316 -3 l 148 0 l -9 0 l -3 36 l 83 49 l 182 606 l 100 619 l 106 655 l 393 655 q 630 655 630 512 q 630 443 587 402 q 543 360 465 350 q 540 343 582 302 q 624 262 624 197 q 624 95 547 46 q 470 -3 316 -3 z"},"K":{"x_min":0,"x_max":667,"ha":667,"o":"m 229 49 l 316 36 l 310 0 l -7 0 l -1 36 l 85 49 l 183 606 l 102 619 l 108 655 l 415 655 l 409 619 l 327 606 l 283 351 l 564 606 l 509 619 l 515 655 l 723 655 l 716 619 l 648 606 l 417 397 l 590 49 l 655 36 l 649 0 l 461 0 l 316 311 l 271 289 z"},"R":{"x_min":0,"x_max":667,"ha":667,"o":"m 270 277 l 229 49 l 311 36 l 305 0 l -1 0 l 4 36 l 84 49 l 183 606 l 101 619 l 107 655 l 369 655 q 497 655 558 614 q 620 574 620 490 q 620 414 578 363 q 537 312 459 291 l 557 49 l 629 36 l 623 0 l 428 0 l 326 277 z m 306 331 q 386 331 431 371 q 477 411 477 482 q 477 545 447 573 q 417 601 360 601 l 327 601 l 279 331 z"},"T":{"x_min":0,"x_max":611,"ha":611,"o":"m 82 0 l 87 36 l 194 49 l 292 603 l 262 603 q 234 603 200 600 q 167 596 152 593 l 115 472 l 73 472 l 105 655 l 644 655 l 611 472 l 568 472 l 575 593 q 561 596 525 599 q 488 602 465 602 l 436 602 l 338 49 l 440 36 l 434 0 z"},"P":{"x_min":0,"x_max":611,"ha":611,"o":"m 314 311 q 389 311 431 356 q 474 401 474 479 q 474 537 446 569 q 417 601 360 601 l 327 601 l 275 311 z m 266 257 l 229 49 l 335 36 l 330 0 l 0 0 l 5 36 l 84 49 l 183 606 l 101 619 l 106 655 l 366 655 q 490 655 553 611 q 617 567 617 480 q 617 374 544 315 q 472 257 335 257 z"},"|":{"x_min":0,"x_max":220,"ha":220,"o":"m 68 -216 l 68 694 l 138 694 l 138 -216 z"},"t":{"x_min":0,"x_max":278,"ha":278,"o":"m 209 52 q 226 52 263 64 l 275 30 q 251 13 215 2 q 178 -10 145 -10 q 91 -10 62 16 q 33 42 33 90 q 33 113 42 161 l 86 408 l 30 408 l 36 440 l 105 459 l 173 563 l 244 563 l 226 459 l 303 459 l 294 408 l 217 408 l 172 160 q 165 120 165 101 q 165 75 177 63 q 190 52 209 52 z"},"M":{"x_min":0,"x_max":889,"ha":889,"o":"m 361 0 l 339 0 l 231 565 l 140 49 l 226 36 l 220 0 l -13 0 l -7 36 l 79 49 l 177 606 l 96 619 l 102 655 l 343 655 l 423 228 l 656 655 l 917 655 l 911 619 l 824 606 l 726 49 l 808 36 l 802 0 l 481 0 l 487 36 l 582 49 l 673 565 z"},"g":{"x_min":0,"x_max":500,"ha":500,"o":"m 143 173 q 143 122 158 92 q 174 63 199 63 q 216 63 239 80 q 262 97 284 126 l 336 411 q 308 423 273 423 q 237 423 208 389 q 178 355 160 296 q 143 236 143 173 z m 14 152 q 14 239 47 314 q 81 389 139 430 q 197 471 271 471 q 351 471 474 451 l 390 -17 q 371 -118 311 -166 q 251 -213 144 -213 q 98 -213 53 -203 q 8 -193 -19 -178 l -8 -55 l 20 -55 l 37 -119 q 55 -137 83 -148 q 110 -160 144 -160 q 177 -160 199 -147 q 221 -135 234 -111 q 248 -87 256 -37 q 268 35 279 71 q 250 32 213 10 q 176 -11 141 -11 q 83 -11 49 33 q 14 77 14 152 z"},"j":{"x_min":0,"x_max":278,"ha":278,"o":"m -49 -213 q -92 -213 -131 -204 l -112 -94 l -81 -94 l -69 -152 q -60 -159 -47 -159 q -22 -159 -3 -126 q 16 -94 26 -35 l 104 410 l 26 427 l 32 459 l 244 459 l 160 -19 q 143 -115 90 -164 q 38 -213 -49 -213 z m 131 619 q 131 651 153 672 q 175 694 206 694 q 237 694 259 672 q 281 650 281 619 q 281 588 259 566 q 238 544 206 544 q 175 544 153 566 q 131 587 131 619 z"},"i":{"x_min":0,"x_max":278,"ha":278,"o":"m 165 44 l 223 32 l 217 0 l 25 0 l 99 415 l 54 427 l 60 459 l 238 459 z m 124 619 q 124 651 146 672 q 168 694 199 694 q 230 694 252 672 q 273 650 273 619 q 273 588 252 566 q 230 544 199 544 q 167 544 146 566 q 124 587 124 619 z"},"y":{"x_min":0,"x_max":444,"ha":444,"o":"m 447 428 q 447 384 407 321 l 193 -29 q 146 -105 114 -142 q 82 -178 49 -197 q 16 -216 -21 -216 q -46 -216 -61 -214 q -76 -212 -100 -207 l -80 -88 l -50 -88 l -41 -150 q -28 -161 -6 -161 q 23 -161 58 -127 q 92 -94 146 -2 l 42 415 l 12 427 l 18 459 l 166 459 l 240 147 l 328 293 q 341 315 350 341 q 359 366 359 381 q 359 394 355 402 q 351 410 344 416 q 337 421 315 427 l 321 459 l 434 459 q 447 448 447 428 z"},"@":{"x_min":0,"x_max":832,"ha":832,"o":"m 475 666 q 632 666 719 588 q 805 509 805 367 q 805 270 762 187 q 719 105 649 59 q 578 12 498 12 q 465 12 443 31 q 420 49 417 76 q 383 48 346 30 q 309 12 283 12 q 242 12 217 44 q 192 75 192 130 q 192 202 217 261 q 242 320 290 365 q 337 409 390 430 q 442 451 530 451 q 572 451 619 446 l 560 185 q 545 124 545 109 q 545 83 571 83 q 608 83 640 119 q 671 155 691 224 q 710 292 710 366 q 710 483 647 547 q 583 612 471 612 q 368 612 288 557 q 208 501 163 402 q 118 302 118 178 q 118 87 154 16 q 189 -55 256 -94 q 323 -134 413 -134 q 464 -134 508 -125 q 552 -115 589 -98 q 626 -82 673 -47 l 699 -84 q 629 -140 557 -165 q 484 -190 398 -190 q 287 -190 201 -144 q 116 -98 70 -13 q 23 71 23 177 q 23 316 82 428 q 141 541 245 603 q 348 666 475 666 z m 314 156 q 314 124 324 108 q 334 92 348 92 q 380 92 418 124 l 480 393 l 453 396 q 402 396 371 363 q 350 336 332 274 q 314 212 314 156 z"},".":{"x_min":0,"x_max":250,"ha":250,"o":"m 88 -14 q 55 -14 31 9 q 7 33 7 67 q 7 101 31 124 q 54 148 88 148 q 122 148 146 125 q 169 101 169 67 q 169 33 146 10 q 123 -14 88 -14 z"},"p":{"x_min":0,"x_max":500,"ha":500,"o":"m 470 308 q 470 221 438 148 q 406 75 349 33 q 291 -10 219 -10 q 177 -10 144 6 l 143 -8 l 137 -54 l 118 -169 l 196 -181 l 190 -213 l -71 -213 l -65 -181 l -15 -169 l 90 417 l 42 430 l 47 459 l 216 459 l 213 392 q 274 471 343 471 q 400 471 435 427 q 470 383 470 308 z m 341 287 q 341 338 326 367 q 312 397 287 397 q 254 397 205 332 l 157 62 q 169 50 185 44 q 202 39 214 39 q 249 39 279 73 q 308 107 325 166 q 341 224 341 287 z"},"X":{"x_min":0,"x_max":667,"ha":667,"o":"m 125 49 l 199 36 l 193 0 l -25 0 l -20 36 l 55 49 l 280 310 l 164 606 l 93 619 l 99 655 l 398 655 l 392 619 l 312 606 l 381 427 l 536 606 l 462 619 l 468 655 l 688 655 l 681 619 l 606 606 l 403 371 l 530 49 l 602 36 l 596 0 l 296 0 l 302 36 l 383 49 l 302 254 z"},"*":{"x_min":0,"x_max":500,"ha":500,"o":"m 309 434 l 319 276 l 207 294 l 265 443 l 109 351 l 80 461 l 234 480 l 93 547 l 155 642 l 275 508 l 266 666 l 378 648 l 319 501 l 475 588 l 505 480 l 348 462 l 492 396 l 430 302 z"},"Y":{"x_min":0,"x_max":611,"ha":611,"o":"m 343 49 l 444 36 l 438 0 l 86 0 l 92 36 l 198 49 l 237 265 l 123 606 l 51 619 l 58 655 l 368 655 l 362 619 l 271 606 l 358 335 l 536 606 l 458 619 l 465 655 l 688 655 l 681 619 l 609 606 l 382 268 z"},"c":{"x_min":0,"x_max":444,"ha":444,"o":"m 191 -10 q 107 -10 61 36 q 15 81 15 161 q 15 251 51 322 q 86 393 149 432 q 212 471 286 471 q 321 471 362 465 q 403 458 429 449 l 405 309 l 370 309 l 363 392 q 337 421 292 421 q 253 421 219 387 q 185 353 165 294 q 146 235 146 166 q 146 111 167 81 q 188 51 230 51 q 267 51 297 64 q 327 77 354 97 l 376 66 q 336 30 287 10 q 238 -10 191 -10 z"},"!":{"x_min":0,"x_max":389,"ha":389,"o":"m 203 205 l 156 205 l 186 655 l 332 655 z m 157 -14 q 124 -14 100 9 q 76 33 76 67 q 76 101 100 124 q 123 148 157 148 q 191 148 215 125 q 238 101 238 67 q 238 33 215 10 q 191 -14 157 -14 z"},"/":{"x_min":0,"x_max":278,"ha":278,"o":"m 8 -10 l -61 -10 l 286 659 l 354 659 z"},"[":{"x_min":0,"x_max":333,"ha":333,"o":"m 25 -134 l 171 694 l 384 694 l 378 661 l 275 641 l 148 -81 l 244 -101 l 238 -134 z"},"6":{"x_min":0,"x_max":500,"ha":500,"o":"m 224 -10 q 132 -10 83 50 q 34 109 34 218 q 34 335 78 438 q 122 541 198 602 q 274 662 362 662 q 433 662 500 641 l 474 492 l 431 492 l 427 587 q 396 612 358 612 q 295 612 247 545 q 199 478 176 362 q 243 398 305 398 q 379 398 420 355 q 461 313 461 236 q 461 166 432 109 q 403 53 349 21 q 295 -10 224 -10 z m 161 203 q 161 122 180 81 q 199 40 235 40 q 278 40 304 90 q 331 141 331 224 q 331 283 308 310 q 286 337 250 337 q 216 337 168 317 q 161 261 161 203 z"},"r":{"x_min":0,"x_max":389,"ha":389,"o":"m 214 360 q 241 413 279 442 q 317 471 356 471 q 379 471 396 466 l 368 302 l 341 302 l 320 369 q 283 369 256 350 q 229 332 203 291 l 152 0 l 21 0 l 94 415 l 37 427 l 42 459 l 225 459 z"},"2":{"x_min":0,"x_max":500,"ha":500,"o":"m 403 0 l -12 0 l 4 92 q 193 238 268 334 q 342 430 342 512 q 342 565 318 589 q 293 612 254 612 q 210 612 176 587 l 139 492 l 96 492 l 123 641 q 164 650 202 656 q 240 662 284 662 q 375 662 426 625 q 477 587 477 521 q 477 473 458 428 q 439 382 402 339 q 365 295 302 245 q 240 195 94 101 l 422 101 z"},"{":{"x_min":0,"x_max":348,"ha":348,"o":"m 196 -134 q 137 -134 105 -104 q 73 -74 73 -19 q 73 1 77 20 l 100 154 q 103 170 103 184 q 103 224 80 241 q 57 259 14 260 l 21 302 q 71 303 103 327 q 135 352 145 407 l 172 561 q 184 629 225 662 q 267 694 342 694 l 408 694 l 401 651 l 371 651 q 337 651 317 635 q 297 618 290 576 l 259 400 q 250 353 218 320 q 185 287 138 277 l 138 276 q 175 268 196 242 q 217 217 217 178 l 215 152 l 189 4 q 186 -12 186 -26 q 186 -56 199 -73 q 212 -91 240 -91 l 270 -91 l 262 -134 z"},"9":{"x_min":0,"x_max":500,"ha":500,"o":"m 287 662 q 375 662 429 599 q 482 536 482 430 q 482 310 440 208 q 397 107 322 49 q 247 -10 159 -10 q 81 -10 15 11 l 41 160 l 83 160 l 88 65 q 120 40 166 40 q 227 40 274 104 q 321 168 343 285 q 279 254 216 254 q 140 254 98 300 q 56 345 56 426 q 56 492 85 546 q 114 601 167 631 q 220 662 287 662 z m 356 431 q 356 516 336 564 q 316 613 281 613 q 238 613 212 561 q 185 510 185 426 q 185 370 205 343 q 225 315 261 315 q 299 315 351 334 q 356 382 356 431 z"}," ":{"x_min":0,"x_max":250,"ha":250,"o":""},"I":{"x_min":0,"x_max":389,"ha":389,"o":"m 227 49 l 308 36 l 302 0 l -10 0 l -3 36 l 83 49 l 181 606 l 99 619 l 105 655 l 417 655 l 411 619 l 325 606 z"},"H":{"x_min":0,"x_max":778,"ha":778,"o":"m -7 0 l -1 36 l 85 49 l 183 606 l 102 619 l 108 655 l 420 655 l 414 619 l 327 606 l 285 364 l 523 364 l 565 606 l 484 619 l 490 655 l 803 655 l 797 619 l 710 606 l 612 49 l 694 36 l 688 0 l 375 0 l 381 36 l 467 49 l 513 310 l 275 310 l 229 49 l 311 36 l 304 0 z"},"4":{"x_min":0,"x_max":500,"ha":500,"o":"m 377 134 l 354 0 l 232 0 l 255 134 l -16 134 l -2 209 l 371 658 l 470 658 l 393 225 l 470 225 l 454 134 z m 333 526 l 83 225 l 271 225 l 305 413 q 312 447 333 526 z"},"~":{"x_min":0,"x_max":570,"ha":570,"o":"m 406 235 q 378 235 348 249 q 318 264 282 294 q 240 329 220 341 q 200 353 184 353 q 149 353 133 326 q 117 299 111 235 l 42 235 q 49 308 65 345 q 82 382 110 402 q 139 423 184 423 q 212 423 244 408 q 275 394 331 346 q 377 305 406 305 q 438 305 454 333 q 470 361 478 423 l 548 423 q 538 349 521 312 q 505 275 477 255 q 449 235 406 235 z"},"D":{"x_min":0,"x_max":722,"ha":722,"o":"m 547 378 q 547 601 344 601 l 326 601 l 230 56 q 271 52 291 52 q 410 52 478 139 q 547 227 547 378 z m 362 655 q 527 655 613 585 q 699 515 699 385 q 699 268 649 180 q 600 92 507 45 q 415 -2 292 -2 l 88 0 l -7 0 l -1 36 l 85 49 l 183 606 l 102 619 l 108 655 z"},"^":{"x_min":0,"x_max":570,"ha":570,"o":"m 456 190 l 295 562 l 134 190 l 64 190 l 273 655 l 317 655 l 526 190 z"},"0":{"x_min":0,"x_max":500,"ha":500,"o":"m 482 464 q 482 354 447 231 q 412 109 350 50 q 289 -10 200 -10 q 35 -10 35 195 q 35 310 70 429 q 105 548 167 607 q 228 665 314 665 q 482 665 482 464 z m 362 474 q 362 541 348 576 q 335 611 301 611 q 259 611 230 555 q 200 500 177 376 q 154 251 154 179 q 154 44 212 44 q 246 44 271 77 q 297 110 315 177 q 334 244 347 332 q 360 419 362 474 z"},"F":{"x_min":0,"x_max":667,"ha":667,"o":"m 271 289 l 229 49 l 335 36 l 330 0 l -1 0 l 5 36 l 85 49 l 183 606 l 102 619 l 108 655 l 650 655 l 619 479 l 573 479 l 578 594 q 554 598 492 599 q 430 601 394 601 l 327 601 l 281 343 l 458 343 l 488 426 l 532 426 l 493 205 l 449 205 l 449 289 z"},"`":{"x_min":0,"x_max":333,"ha":333,"o":"m 267 546 l 112 677 l 116 695 l 245 695 l 312 562 l 309 546 z"},"k":{"x_min":0,"x_max":500,"ha":500,"o":"m 189 248 l 361 416 l 319 427 l 324 459 l 492 459 l 487 427 l 442 416 l 323 307 l 432 44 l 471 32 l 465 0 l 312 0 l 231 221 l 178 187 l 145 0 l 14 0 l 128 650 l 83 662 l 89 694 l 268 694 z"},"u":{"x_min":0,"x_max":556,"ha":556,"o":"m 171 105 q 171 58 215 58 q 247 58 286 93 q 325 128 342 169 l 394 459 l 523 459 l 451 44 l 504 32 l 498 0 l 325 0 l 329 86 q 253 -12 144 -12 q 94 -12 66 15 q 39 42 39 91 q 39 101 42 123 q 45 146 93 415 l 37 427 l 43 459 l 231 459 l 182 182 q 171 125 171 105 z"},"]":{"x_min":0,"x_max":333,"ha":333,"o":"m -52 -134 l -46 -101 l 57 -81 l 184 641 l 88 661 l 94 694 l 307 694 l 161 -134 z"},"U":{"x_min":0,"x_max":722,"ha":722,"o":"m 82 619 l 88 655 l 390 655 l 384 619 l 297 606 l 242 286 q 231 223 231 190 q 231 60 361 60 q 440 60 490 102 q 540 145 555 226 l 622 606 l 536 619 l 542 655 l 765 655 l 759 619 l 682 606 l 616 230 q 594 106 525 49 q 455 -9 336 -9 q 217 -9 153 44 q 88 97 88 195 q 88 226 98 285 l 153 606 z"},"o":{"x_min":0,"x_max":500,"ha":500,"o":"m 333 305 q 333 423 272 423 q 242 423 212 386 q 182 349 163 286 q 145 224 145 156 q 145 100 163 69 q 181 39 209 39 q 241 39 270 75 q 299 111 316 172 q 333 234 333 305 z m 198 -10 q 115 -10 65 42 q 16 95 16 183 q 16 262 50 328 q 84 395 145 433 q 207 471 283 471 q 366 471 416 419 q 466 367 466 279 q 466 200 432 133 q 397 67 336 29 q 275 -10 198 -10 z"},"N":{"x_min":0,"x_max":722,"ha":722,"o":"m 598 606 l 513 619 l 519 655 l 752 655 l 746 619 l 659 606 l 553 0 l 497 0 l 232 543 l 144 49 l 229 36 l 224 0 l -9 0 l -3 36 l 83 49 l 181 606 l 100 619 l 106 655 l 317 655 l 530 218 z"},"+":{"x_min":0,"x_max":570,"ha":570,"o":"m 328 297 l 328 99 l 258 99 l 258 297 l 61 297 l 61 367 l 258 367 l 258 565 l 328 565 l 328 367 l 526 367 l 526 297 z"},"G":{"x_min":0,"x_max":722,"ha":722,"o":"m 34 255 q 34 378 86 470 q 138 562 233 612 q 329 662 451 662 q 571 662 683 632 l 656 481 l 615 481 l 616 566 q 557 611 459 611 q 382 611 319 565 q 256 520 221 436 q 186 353 186 246 q 186 149 228 95 q 270 41 346 41 q 409 41 461 62 l 495 247 l 413 263 l 419 296 l 711 296 l 705 263 l 639 247 l 601 34 q 529 12 463 1 q 398 -10 323 -10 q 186 -10 110 61 q 34 131 34 255 z"},"q":{"x_min":0,"x_max":500,"ha":500,"o":"m 141 173 q 141 122 157 92 q 173 63 197 63 q 213 63 239 82 q 265 102 286 131 l 337 411 q 309 423 271 423 q 216 423 178 349 q 141 274 141 173 z m 264 471 q 368 471 475 451 l 363 -170 l 408 -181 l 402 -213 l 224 -213 l 260 -24 q 269 33 280 71 q 252 34 213 11 q 174 -11 139 -11 q 81 -11 47 33 q 13 77 13 152 q 13 240 44 314 q 76 387 133 429 q 190 471 264 471 z"},"d":{"x_min":0,"x_max":500,"ha":500,"o":"m 135 -10 q 79 -10 45 33 q 12 76 12 151 q 12 238 43 312 q 75 385 132 428 q 188 471 258 471 q 311 471 343 457 l 344 472 l 350 518 l 372 650 l 294 662 l 300 694 l 512 694 l 396 42 l 445 29 l 439 0 l 277 0 l 273 70 q 245 32 208 11 q 170 -10 135 -10 z m 140 173 q 140 120 154 91 q 168 62 190 62 q 209 62 235 82 q 261 102 282 130 l 329 399 q 319 409 299 416 q 279 422 264 422 q 230 422 202 388 q 173 353 157 294 q 140 235 140 173 z"},"1":{"x_min":0,"x_max":500,"ha":500,"o":"m 282 54 l 399 42 l 392 0 l 23 0 l 31 42 l 151 54 l 237 545 l 114 510 l 121 552 l 325 660 l 389 660 z"},"5":{"x_min":0,"x_max":500,"ha":500,"o":"m 252 390 q 346 390 396 346 q 446 302 446 220 q 446 110 373 50 q 300 -10 166 -10 q 129 -10 100 -7 q 70 -4 11 10 l 33 168 l 78 168 l 85 63 q 99 52 123 46 q 147 40 173 40 q 239 40 276 86 q 312 132 312 217 q 312 335 216 335 q 196 335 170 330 q 144 325 122 316 l 77 316 l 136 655 l 474 655 l 457 556 l 180 556 l 149 377 q 193 390 252 390 z"}}}
